<?xml version="1.0" encoding="UTF-8"?>
<svg version="1.1" xmlns="http://www.w3.org/2000/svg" width="558" height="558">
<path d="M0 0 C3 1 3 1 5.27734375 5.1796875 C6.59412109 7.99886719 6.59412109 7.99886719 7.9375 10.875 C8.90171875 12.93621094 9.8659375 14.99742187 10.859375 17.12109375 C15.99705731 28.37415164 21.0267198 39.67341944 26 51 C26.33 44.73 26.66 38.46 27 32 C26.01 32 25.02 32 24 32 C25 25 25 25 30 20 C31.65 21.65 33.3 23.3 35 25 C35.99 23.35 36.98 21.7 38 20 C42 22 42 22 45 25 C46.65 23.35 48.3 21.7 50 20 C54 26 54 26 54 32 C53.34 32 52.68 32 52 32 C52.05800781 33.81886719 52.11601562 35.63773438 52.17578125 37.51171875 C52.24345703 41.06373047 52.24345703 41.06373047 52.3125 44.6875 C52.37050781 47.04261719 52.42851562 49.39773437 52.48828125 51.82421875 C52 58 52 58 47 63 C45.35 63 43.7 63 42 63 C41.88808169 78.66856373 44.79571071 89.17684459 52 103 C53.11375 105.248125 54.2275 107.49625 55.375 109.8125 C56.24125 111.524375 57.1075 113.23625 58 115 C61 122 61 122 60 126 C58.68 126.33 57.36 126.66 56 127 C57.2684375 129.908125 57.2684375 129.908125 58.5625 132.875 C68.26933011 158.64222175 74.59988419 183.33365503 65 210 C61.05103761 218.44639178 55.48532789 228.75733605 47 233 C47 233.66 47 234.32 47 235 C31.73834164 246.12829256 20.03009969 251.42797873 1.1875 251.4375 C-1.35582031 251.45683594 -3.89914062 251.47617187 -6.51953125 251.49609375 C-22.13908723 250.46022764 -33.67787501 244.19820598 -46 235 C-46 234.34 -46 233.68 -46 233 C-47.32 232.34 -48.64 231.68 -50 231 C-50 230.34 -50 229.68 -50 229 C-50.66 229 -51.32 229 -52 229 C-63.10744358 213.76693451 -68.42796189 202.05915573 -68.4375 183.25 C-68.45683594 180.71828125 -68.47617188 178.1865625 -68.49609375 175.578125 C-67.98766773 167.81161735 -66.39824814 161.38361745 -64 154 C-63.154375 151.256875 -62.30875 148.51375 -61.4375 145.6875 C-59.66926847 140.1107698 -57.85004223 134.55012669 -56 129 C-56.5287229 122.98904007 -56.5287229 122.98904007 -60 119 C-60 118.01 -60 117.02 -60 116 C-56.7 116 -53.4 116 -50 116 C-49.34 113.36 -48.68 110.72 -48 108 C-43.21755658 95.52056009 -38.03893798 83.19048906 -32.5625 71 C-29.76038119 64.70752266 -27.3234049 58.47234223 -25 52 C-23.68 49.36 -22.36 46.72 -21 44 C-20.05125 41.7725 -19.1025 39.545 -18.125 37.25 C-15.29861456 30.69278579 -12.21877045 24.37048318 -9 18 C-7.948125 15.710625 -6.89625 13.42125 -5.8125 11.0625 C-3 5 -3 5 0 0 Z M0 24 C-4.02965563 31.9043245 -7.72464792 39.76199324 -11 48 C-12.340625 50.84625 -13.68125 53.6925 -15.0625 56.625 C-19.06429733 64.84448098 -19.06429733 64.84448098 -22 73 C-17.74160687 75.71779068 -17.74160687 75.71779068 -13 78 C-11.68 77.34 -10.36 76.68 -9 76 C-8.67 75.01 -8.34 74.02 -8 73 C-6.68 72.34 -5.36 71.68 -4 71 C-2.68 69.68 -1.36 68.36 0 67 C5.38691741 69.69345871 8.82904602 73.7063709 13 78 C18.94729537 76.36893239 18.94729537 76.36893239 23 73 C20.66174616 65.98523848 18.10736089 59.66945753 15 53 C12.43898903 47.23772531 9.89562543 41.46755487 7.375 35.6875 C5.65123648 31.76114977 3.91768542 27.83537084 2 24 C1.34 24 0.68 24 0 24 Z M33 32 C33 40.25 33 48.5 33 57 C33.99 57 34.98 57 36 57 C36 48.75 36 40.5 36 32 C35.01 32 34.02 32 33 32 Z M42 32 C42 39.92 42 47.84 42 56 C43.32 56 44.64 56 46 56 C46 48.08 46 40.16 46 32 C44.68 32 43.36 32 42 32 Z M30 62 C31.98615909 68.23529553 31.98615909 68.23529553 35 75 C35.33 75 35.66 75 36 75 C36.33 71.04 36.66 67.08 37 63 C34.69 62.67 32.38 62.34 30 62 Z M24 76 C21.39452551 81.9972521 21.39452551 81.9972521 20 93 C7.46 93 -5.08 93 -18 93 C-18.66 89.37 -19.32 85.74 -20 82 C-20.66 80.35 -21.32 78.7 -22 77 C-26.43358068 81.43358068 -27.71350012 84.68677259 -29.9375 90.5 C-32.21870979 96.3970339 -34.52722087 102.24116581 -37 108.0625 C-39.18771638 112.57556055 -39.18771638 112.57556055 -39 116 C-31.74 116.33 -24.48 116.66 -17 117 C-9 137 -9 137 -6.90625 142.3125 C-4.85594092 147.35424364 -2.48836328 152.16151585 0 157 C0.66 157 1.32 157 2 157 C4.68702878 153.25450068 4.68702878 153.25450068 7 145 C8.15589283 141.85019203 9.32275884 138.70439143 10.5 135.5625 C12.89752299 129.09476356 15.14692559 122.649267 17 116 C23.27 116 29.54 116 36 116 C36.93455424 104.38482588 33.74607315 96.52046214 29 86 C27.66074812 82.66904019 26.32419594 79.33697378 25 76 C24.67 76 24.34 76 24 76 Z M42 135 C42 164.37 42 193.74 42 224 C52.60218537 213.39781463 57.39657744 201.70933745 60 187 C60 168.42756679 54.1341943 150.07110778 47 133 C45.40371521 132.9254644 45.40371521 132.9254644 42 135 Z M-48 138 C-56.72989673 162.84662916 -63.71312115 185.46368671 -51.8125 210.625 C-48.27173462 216.13285725 -44.30493805 221.07115788 -40 226 C-39.34 226 -38.68 226 -38 226 C-37.73058594 224.62070312 -37.46117187 223.24140625 -37.18359375 221.8203125 C-35.89511295 215.48421881 -34.48542877 209.18223135 -33.0625 202.875 C-28.8443678 186.58514089 -28.8443678 186.58514089 -27 170 C-28.98 169.67 -30.96 169.34 -33 169 C-32.690625 167.535625 -32.38125 166.07125 -32.0625 164.5625 C-31.98164075 157.36602679 -34.32262915 155.29079654 -39 150 C-40.98 146.535 -40.98 146.535 -43 143 C-44.65 141.35 -46.3 139.7 -48 138 Z M24 145 C26.00419205 156.8141847 28.32100481 168.53278718 30.79296875 180.2578125 C32.2443138 187.16226955 33.63020781 194.07894473 35 201 C35.33 201 35.66 201 36 201 C36 180.54 36 160.08 36 139 C31.68963655 139 27.56766859 142.80451164 24 145 Z M-29 142 C-26.89442719 150.5527864 -26.89442719 150.5527864 -23 154 C-22.34 151.03 -21.68 148.06 -21 145 C-25.45692115 141.74275212 -25.45692115 141.74275212 -29 142 Z M0 189 C-1.32 190.65 -2.64 192.3 -4 194 C-5.65 195.65 -7.3 197.3 -9 199 C-11.145 201.475 -13.29 203.95 -15.5 206.5 C-19.20806122 210.77853217 -22.99652928 214.99652928 -27 219 C-29.67869326 221.98926639 -32.34731551 224.98762948 -35 228 C-33.25673762 233.22978714 -28.70904116 234.51889229 -24 237 C-7.05914609 242.75056509 8.13912628 243.18943466 25 237 C31.0574261 233.76066804 31.0574261 233.76066804 36 230 C36 228.68 36 227.36 36 226 C32.535 222.535 32.535 222.535 29 219 C25.49636751 215.08761039 22.15105176 211.20140234 19 207 C18.34 207 17.68 207 17 207 C16.34 205.68 15.68 204.36 15 203 C12.525 200.525 12.525 200.525 10 198 C9.01 196.68 8.02 195.36 7 194 C6.34 194 5.68 194 5 194 C4.34 192.68 3.68 191.36 3 190 C2.01 189.67 1.02 189.34 0 189 Z " fill="#293C7C" transform="translate(280,132)"/>
<path d="M0 0 C1.65 0 3.3 0 5 0 C5.99 2.124375 6.98 4.24875 8 6.4375 C10.06065549 10.84859066 12.12500591 15.25827309 14.24609375 19.640625 C20 31.57921123 20 31.57921123 20 36 C19.01 36.495 19.01 36.495 18 37 C18.90823138 45.17408246 20.7133388 52.13960212 23 60 C23.495 63.465 23.495 63.465 24 67 C23.34 67 22.68 67 22 67 C21.34 67.66 20.68 68.32 20 69 C19.34 67.35 18.68 65.7 18 64 C17.195625 62.453125 16.39125 60.90625 15.5625 59.3125 C13.1245834 54.25828266 11.46696988 49.40462586 10 44 C6.535 44.495 6.535 44.495 3 45 C2.67 75.36 2.34 105.72 2 137 C11.22354625 133.3105815 15.00105593 124.6834214 19 116 C23.84242755 103.89393113 23.36135551 90.8281205 23 78 C22.34 76.68 21.68 75.36 21 74 C21.33 72.02 21.66 70.04 22 68 C22.66 68 23.32 68 24 68 C24.33 69.32 24.66 70.64 25 72 C25.66 72 26.32 72 27 72 C27.99 75.96 27.99 75.96 29 80 C29.66 80 30.32 80 31 80 C34.58711886 97.93559428 31.08606406 113.82787189 23 130 C21.02 130.99 21.02 130.99 19 132 C16.958125 134.536875 16.958125 134.536875 14.875 137.125 C8.25216365 145.10636688 3.44805456 150.50742078 -7 152 C-8.98 151.01 -8.98 151.01 -11 150 C-7.04 147.03 -3.08 144.06 1 141 C-2.0404226 135.47450615 -2.0404226 135.47450615 -8 130 C-8 129.34 -8 128.68 -8 128 C-9.98 127.01 -9.98 127.01 -12 126 C-14.36895009 123.02804443 -16.70032976 120.02588189 -19 117 C-22.08340372 113.91659628 -25.18409037 110.85023109 -28.3125 107.8125 C-32 104 -32 104 -32 102 C-32.66 102 -33.32 102 -34 102 C-34.66 101.01 -35.32 100.02 -36 99 C-39.11785113 99.64644661 -39.11785113 99.64644661 -40 102 C-40.66 102 -41.32 102 -42 102 C-42.66 103.32 -43.32 104.64 -44 106 C-45.32 107.65 -46.64 109.3 -48 111 C-48.66 111 -49.32 111 -50 111 C-50 111.66 -50 112.32 -50 113 C-50.66 113 -51.32 113 -52 113 C-52.33 114.32 -52.66 115.64 -53 117 C-54.65 118.65 -56.3 120.3 -58 122 C-59.711875 123.918125 -61.42375 125.83625 -63.1875 127.8125 C-64.775625 129.524375 -66.36375 131.23625 -68 133 C-68.66 133 -69.32 133 -70 133 C-70.33 133.99 -70.66 134.98 -71 136 C-71.66 136 -72.32 136 -73 136 C-75.2081435 127.16742601 -74.31638715 122.98949061 -72.25 114.25 C-71.69828125 111.86265625 -71.1465625 109.4753125 -70.578125 107.015625 C-69 101 -69 101 -67 97 C-64.67276928 91.18192319 -64.26552073 86.23973716 -64 80 C-64.66 79.01 -65.32 78.02 -66 77 C-65.34 75.68 -64.68 74.36 -64 73 C-64.99 73 -65.98 73 -67 73 C-67.33 71.68 -67.66 70.36 -68 69 C-67.34 69 -66.68 69 -66 69 C-66 69.66 -66 70.32 -66 71 C-63.03 70.505 -63.03 70.505 -60 70 C-59.34 65.38 -58.68 60.76 -58 56 C-62.455 54.02 -62.455 54.02 -67 52 C-66.67 52.66 -66.34 53.32 -66 54 C-67.98 53.67 -69.96 53.34 -72 53 C-71.67 51.68 -71.34 50.36 -71 49 C-69.02 48.34 -67.04 47.68 -65 47 C-65.66 45.02 -66.32 43.04 -67 41 C-67.99 40.67 -68.98 40.34 -70 40 C-70 39.34 -70 38.68 -70 38 C-64.83751229 36.27917076 -59.40093962 36.37432255 -54 36 C-50.22073803 43.55852393 -47.12548512 51.1543945 -44 59 C-42.35758044 62.67759163 -40.70050965 66.34890576 -39 70 C-37.02 69.505 -37.02 69.505 -35 69 C-33.2045069 64.71843953 -31.55913208 60.37317536 -30 56 C-29.154375 53.999375 -28.30875 51.99875 -27.4375 49.9375 C-25.00786172 44.01915035 -22.85144043 38.12399528 -21 32 C-21.495 31.01 -21.495 31.01 -22 30 C-14.74 29.67 -7.48 29.34 0 29 C0.33 24.71 0.66 20.42 1 16 C0.34 16 -0.32 16 -1 16 C-1.495 12.04 -1.495 12.04 -2 8 C-1.34 8 -0.68 8 0 8 C-0.495 7.505 -0.495 7.505 -1 7 C-0.67 4.69 -0.34 2.38 0 0 Z M-14 57 C-11.99580795 68.8141847 -9.67899519 80.53278718 -7.20703125 92.2578125 C-5.7556862 99.16226955 -4.36979219 106.07894473 -3 113 C-2.67 113 -2.34 113 -2 113 C-2 92.54 -2 72.08 -2 51 C-6.31036345 51 -10.43233141 54.80451164 -14 57 Z " fill="#293C7D" transform="translate(318,220)"/>
<path d="M0 0 C3 1 3 1 5.27734375 5.1796875 C6.59412109 7.99886719 6.59412109 7.99886719 7.9375 10.875 C8.90171875 12.93621094 9.8659375 14.99742187 10.859375 17.12109375 C15.99705731 28.37415164 21.0267198 39.67341944 26 51 C26.33 44.73 26.66 38.46 27 32 C26.01 32 25.02 32 24 32 C25 25 25 25 30 20 C31.65 21.65 33.3 23.3 35 25 C35.99 23.35 36.98 21.7 38 20 C42 22 42 22 45 25 C46.65 23.35 48.3 21.7 50 20 C54 26 54 26 54 32 C53.34 32 52.68 32 52 32 C52.05800781 33.81886719 52.11601562 35.63773438 52.17578125 37.51171875 C52.24345703 41.06373047 52.24345703 41.06373047 52.3125 44.6875 C52.37050781 47.04261719 52.42851562 49.39773437 52.48828125 51.82421875 C52 58 52 58 47 63 C45.35 63 43.7 63 42 63 C41.88808169 78.66856373 44.79571071 89.17684459 52 103 C53.11375 105.248125 54.2275 107.49625 55.375 109.8125 C56.24125 111.524375 57.1075 113.23625 58 115 C61 122 61 122 60 126 C58.68 126.33 57.36 126.66 56 127 C56.86625 129.000625 57.7325 131.00125 58.625 133.0625 C68 157.88888889 68 157.88888889 68 170 C66 168 66 168 65 160 C64.34 160 63.68 160 63 160 C62.67 158.68 62.34 157.36 62 156 C61.34 156 60.68 156 60 156 C60.52057921 160.68521286 61.07549967 165.37749836 62 170 C62.55390923 190.49464158 59.81077015 205.67659933 47 222 C46.01 222.99 45.02 223.98 44 225 C42.68 225 41.36 225 40 225 C39.90132607 212.25588253 39.82862096 199.51198608 39.78027344 186.76757812 C39.76012423 182.42964812 39.73280404 178.09174537 39.69824219 173.75390625 C39.64987355 167.52857749 39.62706335 161.30360698 39.609375 155.078125 C39.57840729 152.15613251 39.57840729 152.15613251 39.54681396 149.17510986 C39.54602117 144.44765916 39.75402946 139.72104748 40 135 C41.32 133.68 42.64 132.36 44 131 C45.65 131.33 47.3 131.66 49 132 C49.391875 133.44375 49.78375 134.8875 50.1875 136.375 C51.9810666 141.94124118 54.33384898 146.8080217 57 152 C57.33 153.32 57.66 154.64 58 156 C58.99 155.34 59.98 154.68 61 154 C60.04936891 147.51113329 60.04936891 147.51113329 57.4375 139.5 C55 131 55 131 55 125 C55.99 124.67 56.98 124.34 58 124 C55.24950663 115.96009631 51.86058044 108.56358617 48 101 C43 90.34782609 43 90.34782609 43 88 C41.35 88 39.7 88 38 88 C38 90.31 38 92.62 38 95 C38 95.99 38 96.98 38 98 C37.67 97.67 37.34 97.34 37 97 C37 99.31 37 101.62 37 104 C37.66 104 38.32 104 39 104 C39 108.62 39 113.24 39 118 C31.74 118 24.48 118 17 118 C17 117.34 17 116.68 17 116 C23.27 116 29.54 116 36 116 C35.87003702 104.69322059 32.54998872 96.27669866 28 86 C27.01 83.36 26.02 80.72 25 78 C22.00220202 82.13233254 22.00220202 82.13233254 20 93 C7.46 93 -5.08 93 -18 93 C-19.98 86.07 -19.98 86.07 -22 79 C-22.66 79 -23.32 79 -24 79 C-28.00551415 87.82136319 -28.00551415 87.82136319 -31 97 C-31.66 97 -32.32 97 -33 97 C-31.89895277 90.39371659 -29.63354714 85.14494332 -27 79 C-26.01 76.36 -25.02 73.72 -24 71 C-23.34 71 -22.68 71 -22 71 C-21.67 69.02 -21.34 67.04 -21 65 C-19.40395217 61.09538298 -17.72562653 57.22410585 -16 53.375 C-15.01386719 51.16683594 -14.02773438 48.95867187 -13.01171875 46.68359375 C-12.01785156 44.47800781 -11.02398437 42.27242187 -10 40 C-9.09894531 37.99035156 -8.19789063 35.98070312 -7.26953125 33.91015625 C-5.18644245 29.27039885 -3.09421799 24.63474473 -1 20 C-0.01 20 0.98 20 2 20 C7.8361356 31.23996485 12.85381722 42.65127325 17.66015625 54.3671875 C20.27381612 60.65917002 23.10275927 66.83407743 26 73 C26.33 73.99 26.66 74.98 27 76 C27.99 76.495 27.99 76.495 29 77 C29 77.99 29 78.98 29 80 C29.99 80 30.98 80 32 80 C32 72.26550193 30.30018388 68.89371745 27 62 C26.29488281 60.12441406 25.58976562 58.24882812 24.86328125 56.31640625 C21.37242552 47.39638882 17.40401334 38.74963029 13.375 30.0625 C12.611875 28.40669922 11.84875 26.75089844 11.0625 25.04492188 C8.11346479 18.65793247 5.1463024 12.2926048 2 6 C2 5.34 2 4.68 2 4 C1.34 4 0.68 4 0 4 C-0.66 5.65 -1.32 7.3 -2 9 C-6.71480716 20.00121672 -11.73620566 30.81296755 -16.9609375 41.578125 C-19.09092785 45.83670188 -19.09092785 45.83670188 -20 50 C-20.66 50 -21.32 50 -22 50 C-20.08749646 38.52497876 -14.20770484 28.30691583 -9 18 C-7.948125 15.710625 -6.89625 13.42125 -5.8125 11.0625 C-3 5 -3 5 0 0 Z M0 24 C-4.02965563 31.9043245 -7.72464792 39.76199324 -11 48 C-12.340625 50.84625 -13.68125 53.6925 -15.0625 56.625 C-19.06429733 64.84448098 -19.06429733 64.84448098 -22 73 C-17.74160687 75.71779068 -17.74160687 75.71779068 -13 78 C-11.68 77.34 -10.36 76.68 -9 76 C-8.67 75.01 -8.34 74.02 -8 73 C-6.68 72.34 -5.36 71.68 -4 71 C-2.68 69.68 -1.36 68.36 0 67 C5.38691741 69.69345871 8.82904602 73.7063709 13 78 C18.94729537 76.36893239 18.94729537 76.36893239 23 73 C20.66174616 65.98523848 18.10736089 59.66945753 15 53 C12.43898903 47.23772531 9.89562543 41.46755487 7.375 35.6875 C5.65123648 31.76114977 3.91768542 27.83537084 2 24 C1.34 24 0.68 24 0 24 Z M33 32 C33 40.25 33 48.5 33 57 C33.99 57 34.98 57 36 57 C36 48.75 36 40.5 36 32 C35.01 32 34.02 32 33 32 Z M42 32 C42 39.92 42 47.84 42 56 C43.32 56 44.64 56 46 56 C46 48.08 46 40.16 46 32 C44.68 32 43.36 32 42 32 Z M30 62 C31.98615909 68.23529553 31.98615909 68.23529553 35 75 C35.33 75 35.66 75 36 75 C36.33 71.04 36.66 67.08 37 63 C34.69 62.67 32.38 62.34 30 62 Z M42 135 C42 164.37 42 193.74 42 224 C52.60218537 213.39781463 57.39657744 201.70933745 60 187 C60 168.42756679 54.1341943 150.07110778 47 133 C45.40371521 132.9254644 45.40371521 132.9254644 42 135 Z " fill="#253365" transform="translate(280,132)"/>
<path d="M0 0 C0.99 0 1.98 0 3 0 C5.39105957 3.62928685 7.72220187 7.29857804 10 11 C10.99 11.99 11.98 12.98 13 14 C14.32 16.31 15.64 18.62 17 21 C17.66 21.99 18.32 22.98 19 24 C19 29 19 29 17 33 C19.31 33 21.62 33 24 33 C22.25 48.625 22.25 48.625 20 52 C20.875 38.375 20.875 38.375 22 35 C20.02 35 18.04 35 16 35 C15 30 15 30 16 24 C12.81827684 19.45642762 12.81827684 19.45642762 9 15 C7.02 11.535 7.02 11.535 5 8 C4.01 6.68 3.02 5.36 2 4 C-7.44701464 26.04303415 -12.34127328 48.06149848 -4 71 C-0.75214063 77.76637369 4.0795789 87.53978945 11 91 C11.33 88.36 11.66 85.72 12 83 C12.66 83.33 13.32 83.66 14 84 C14 85.65 14 87.3 14 89 C20.90290059 83.08322807 26.34667571 77.06665536 32 70 C32.66 70 33.32 70 34 70 C34.495 68.02 34.495 68.02 35 66 C35.66 66 36.32 66 37 66 C37 65.34 37 64.68 37 64 C37.66 64 38.32 64 39 64 C39.66 62.68 40.32 61.36 41 60 C42.98 57.525 42.98 57.525 45 55 C45.66 55 46.32 55 47 55 C47.66 53.68 48.32 52.36 49 51 C50.32 51.66 51.64 52.32 53 53 C53 53.66 53 54.32 53 55 C53.66 55 54.32 55 55 55 C57.37039755 57.63377505 59.70053432 60.30407472 62 63 C63.32 64.32 64.64 65.64 66 67 C66 67.66 66 68.32 66 69 C67.485 69.495 67.485 69.495 69 70 C71.69839065 73.30770466 74.36267456 76.64340399 77 80 C78.65 81.65 80.3 83.3 82 85 C84.34692206 87.65471512 86.68279245 90.31930891 89 93 C84 98 84 98 77 103 C85.0745356 104.89442719 85.0745356 104.89442719 91 100 C97.85377323 94.45170739 103.11390244 88.32914634 108 81 C108.33 81.99 108.66 82.98 109 84 C101.08661417 95.45669291 101.08661417 95.45669291 96 98 C96 98.66 96 99.32 96 100 C80.73834164 111.12829256 69.03009969 116.42797873 50.1875 116.4375 C47.64417969 116.45683594 45.10085938 116.47617187 42.48046875 116.49609375 C26.86091277 115.46022764 15.32212499 109.19820598 3 100 C3 99.34 3 98.68 3 98 C1.68 97.34 0.36 96.68 -1 96 C-1 95.34 -1 94.68 -1 94 C-1.66 94 -2.32 94 -3 94 C-12.80518721 80.55288611 -19 69.75406411 -19 53 C-18.01 53.99 -17.02 54.98 -16 56 C-15.34 55.34 -14.68 54.68 -14 54 C-14 54.99 -14 55.98 -14 57 C-13.34 57.33 -12.68 57.66 -12 58 C-12.99 58 -13.98 58 -15 58 C-15 59.98 -15 61.96 -15 64 C-14.01 63.34 -13.02 62.68 -12 62 C-12 57.07937127 -12.00754559 52.15850965 -12.0703125 47.23828125 C-11.85311057 31.05673719 -5.05521386 15.16564158 0 0 Z M49 54 C47.68 55.65 46.36 57.3 45 59 C43.35 60.65 41.7 62.3 40 64 C37.855 66.475 35.71 68.95 33.5 71.5 C29.79193878 75.77853217 26.00347072 79.99652928 22 84 C19.32130674 86.98926639 16.65268449 89.98762948 14 93 C15.74326238 98.22978714 20.29095884 99.51889229 25 102 C41.94085391 107.75056509 57.13912628 108.18943466 74 102 C80.0574261 98.76066804 80.0574261 98.76066804 85 95 C85 93.68 85 92.36 85 91 C81.535 87.535 81.535 87.535 78 84 C74.49636751 80.08761039 71.15105176 76.20140234 68 72 C67.34 72 66.68 72 66 72 C65.34 70.68 64.68 69.36 64 68 C61.525 65.525 61.525 65.525 59 63 C58.01 61.68 57.02 60.36 56 59 C55.34 59 54.68 59 54 59 C53.34 57.68 52.68 56.36 52 55 C51.01 54.67 50.02 54.34 49 54 Z " fill="#293B78" transform="translate(231,267)"/>
<path d="M0 0 C0.66 0 1.32 0 2 0 C9.748219 15.84373066 17.16891225 31.74121219 24 48 C25.9490625 52.455 25.9490625 52.455 27.9375 57 C33.04615385 68.67692308 33.04615385 68.67692308 32 76 C31.01 76 30.02 76 29 76 C29 75.01 29 74.02 29 73 C27.515 72.505 27.515 72.505 26 72 C23.92878277 67.02907864 21.94080951 62.02327169 20 57 C18.02508116 52.65517856 16.02260735 48.32282747 14 44 C11.70775557 38.90345653 9.42621618 33.80224222 7.1484375 28.69921875 C5.19290435 24.42193442 3.10329604 20.20659208 1 16 C-3.10904743 20.10904743 -4.77872449 26.74582909 -7 32 C-8.99449924 36.33586791 -10.99491531 40.66901707 -13 45 C-18.17280862 55.75812802 -18.17280862 55.75812802 -22 67 C-22.66 67 -23.32 67 -24 67 C-24.33 68.65 -24.66 70.3 -25 72 C-29.45714286 84.91428571 -29.45714286 84.91428571 -32 90 C-32 91.65 -32 93.3 -32 95 C-33.485 95.495 -33.485 95.495 -35 96 C-37.83967231 101.67934462 -39.4320135 106.87738603 -41 113 C-38.03 113.33 -35.06 113.66 -32 114 C-31 116 -31 116 -32 120 C-33.32 120 -34.64 120 -36 120 C-36 120.99 -36 121.98 -36 123 C-37.98 123 -39.96 123 -42 123 C-42 124.32 -42 125.64 -42 127 C-42.99 126.67 -43.98 126.34 -45 126 C-45.66 126.99 -46.32 127.98 -47 129 C-47.66 129 -48.32 129 -49 129 C-49 127.68 -49 126.36 -49 125 C-49.99 125 -50.98 125 -52 125 C-52.33 123.68 -52.66 122.36 -53 121 C-54.32 119.35 -55.64 117.7 -57 116 C-57 115.34 -57 114.68 -57 114 C-52.545 113.505 -52.545 113.505 -48 113 C-47.34 110.03 -46.68 107.06 -46 104 C-44.04723767 99.3133704 -42.04343445 94.64781168 -40 90 C-38.6696875 86.5040625 -38.6696875 86.5040625 -37.3125 82.9375 C-35 77 -35 77 -32 72 C-30.31306197 67.67451787 -28.64779878 63.34054314 -27 59 C-25.68 56.03 -24.36 53.06 -23 50 C-23 49.34 -23 48.68 -23 48 C-23.99 47.505 -23.99 47.505 -25 47 C-24.01 46.34 -23.02 45.68 -22 45 C-21.01 45.495 -21.01 45.495 -20 46 C-19.67 44.02 -19.34 42.04 -19 40 C-16.85869337 35.38795494 -14.70937564 30.77917465 -12.4921875 26.203125 C-10.0833248 21.17396337 -7.80348494 16.10583381 -5.5625 11 C-2 3 -2 3 0 0 Z " fill="#293C7C" transform="translate(280,136)"/>
<path d="M0 0 C1.98 1.65 3.96 3.3 6 5 C6.99 3.35 7.98 1.7 9 0 C13 2 13 2 16 5 C17.65 3.35 19.3 1.7 21 0 C25 6 25 6 25 12 C24.34 12 23.68 12 23 12 C23.05800781 13.81886719 23.11601562 15.63773438 23.17578125 17.51171875 C23.22089844 19.87972656 23.26601563 22.24773437 23.3125 24.6875 C23.37050781 27.04261719 23.42851562 29.39773437 23.48828125 31.82421875 C23 38 23 38 18 43 C16.35 43 14.7 43 13 43 C12.88808169 58.66856373 15.79571071 69.17684459 23 83 C24.670625 86.3721875 24.670625 86.3721875 26.375 89.8125 C27.24125 91.524375 28.1075 93.23625 29 95 C32 102 32 102 31 106 C29.02 106.495 29.02 106.495 27 107 C27.86625 109.000625 28.7325 111.00125 29.625 113.0625 C39 137.88888889 39 137.88888889 39 150 C37 148 37 148 36 140 C35.34 140 34.68 140 34 140 C33.67 138.68 33.34 137.36 33 136 C32.34 136 31.68 136 31 136 C31.52057921 140.68521286 32.07549967 145.37749836 33 150 C33.55390923 170.49464158 30.81077015 185.67659933 18 202 C17.01 202.99 16.02 203.98 15 205 C13.68 205 12.36 205 11 205 C10.90132607 192.25588253 10.82862096 179.51198608 10.78027344 166.76757812 C10.76012423 162.42964812 10.73280404 158.09174537 10.69824219 153.75390625 C10.64987355 147.52857749 10.62706335 141.30360698 10.609375 135.078125 C10.57840729 132.15613251 10.57840729 132.15613251 10.54681396 129.17510986 C10.54602117 124.44765916 10.75402946 119.72104748 11 115 C12.32 113.68 13.64 112.36 15 111 C16.65 111.33 18.3 111.66 20 112 C20.391875 113.44375 20.78375 114.8875 21.1875 116.375 C22.9810666 121.94124118 25.33384898 126.8080217 28 132 C28.33 133.32 28.66 134.64 29 136 C29.99 135.34 30.98 134.68 32 134 C31.04936891 127.51113329 31.04936891 127.51113329 28.4375 119.5 C26 111 26 111 26 105 C27.485 104.505 27.485 104.505 29 104 C26.24950663 95.96009631 22.86058044 88.56358617 19 81 C10.61135796 62.85712302 10.61135796 62.85712302 10.8125 52.0625 C10.83957031 50.17660156 10.86664063 48.29070312 10.89453125 46.34765625 C10.92933594 44.91292969 10.96414063 43.47820312 11 42 C13.64 41.01 16.28 40.02 19 39 C21.37045004 36.62954996 20.41078875 28.21345854 20.5 25.3125 C20.70354746 18.72992067 20.91720728 12.49675631 22 6 C21.01 5.34 20.02 4.68 19 4 C19 4.66 19 5.32 19 6 C18.34 6 17.68 6 17 6 C16.67 7.32 16.34 8.64 16 10 C16.66 10 17.32 10 18 10 C20.1014875 14.20297501 19.13013995 20.00079732 19.125 24.5625 C19.12886719 27.99849609 19.12886719 27.99849609 19.1328125 31.50390625 C19 37 19 37 18 38 C16.02 38 14.04 38 12 38 C9.95506675 33.91013351 10.86975366 28.44889707 10.875 24 C10.87113281 20.720625 10.87113281 20.720625 10.8671875 17.375 C11 12 11 12 12 10 C11.01 9.67 10.02 9.34 9 9 C9.01160156 11.00964844 9.02320313 13.01929688 9.03515625 15.08984375 C9.04417969 17.67957031 9.05320312 20.26929688 9.0625 22.9375 C9.07990234 26.81822266 9.07990234 26.81822266 9.09765625 30.77734375 C9 37 9 37 8 38 C6.35 38 4.7 38 3 38 C2 37 2 37 1.90234375 31.21484375 C1.91394531 28.81332031 1.92554688 26.41179687 1.9375 23.9375 C1.94652344 21.53339844 1.95554687 19.12929687 1.96484375 16.65234375 C1.97644531 14.78707031 1.98804688 12.92179688 2 11 C2.99 10.67 3.98 10.34 5 10 C4.01 8.35 3.02 6.7 2 5 C1.34 5 0.68 5 0 5 C-0.33 5.66 -0.66 6.32 -1 7 C-1.66 7 -2.32 7 -3 7 C-2.67 8.65 -2.34 10.3 -2 12 C-2.99 12 -3.98 12 -5 12 C-4 5 -4 5 0 0 Z M4 12 C4 20.25 4 28.5 4 37 C4.99 37 5.98 37 7 37 C7 28.75 7 20.5 7 12 C6.01 12 5.02 12 4 12 Z M13 12 C13 19.92 13 27.84 13 36 C14.32 36 15.64 36 17 36 C17 28.08 17 20.16 17 12 C15.68 12 14.36 12 13 12 Z M13 115 C13 144.37 13 173.74 13 204 C23.60218537 193.39781463 28.39657744 181.70933745 31 167 C31 148.42756679 25.1341943 130.07110778 18 113 C16.40371521 112.9254644 16.40371521 112.9254644 13 115 Z " fill="#232E59" transform="translate(309,152)"/>
<path d="M0 0 C4 1 4 1 9 5 C9.33 6.32 9.66 7.64 10 9 C16.34197056 10.75993459 16.34197056 10.75993459 22 6 C22.66 6 23.32 6 24 6 C24.495 7.98 24.495 7.98 25 10 C24.34 10 23.68 10 23 10 C20.79594227 15.26357457 20.79594227 15.26357457 19 22 C7.45 22 -4.1 22 -16 22 C-17.32 17.05 -18.64 12.1 -20 7 C-18.02 7.66 -16.04 8.32 -14 9 C-10.36380344 10.08084521 -10.36380344 10.08084521 -8 10 C-7.34 8.68 -6.68 7.36 -6 6 C-5.01 5.01 -4.02 4.02 -3 3 C-2.34 3 -1.68 3 -1 3 C-0.67 2.01 -0.34 1.02 0 0 Z " fill="#283C7C" transform="translate(279,201)"/>
<path d="M0 0 C4.9375 3.5625 4.9375 3.5625 9 7 C7.94465512 13.33206926 5.91100107 17.31031608 3 23 C1.30665101 26.98877763 -0.36652941 30.98632941 -2 35 C-3.32 35 -4.64 35 -6 35 C-17.28571429 12.42857143 -17.28571429 12.42857143 -16 6 C-8.344 -1.192 -8.344 -1.192 0 0 Z " fill="#283C7C" transform="translate(285,243)"/>
<path d="M0 0 C3.55079429 0.00668699 7.10158146 0.01866468 10.65234375 0.03515625 C13.36420898 0.04192383 13.36420898 0.04192383 16.13085938 0.04882812 C20.61720141 0.06066544 25.10352657 0.07860158 29.58984375 0.09765625 C29.58984375 5.70765625 29.58984375 11.31765625 29.58984375 17.09765625 C21.6759489 17.09765625 18.75418091 13.81156114 12.58984375 9.09765625 C11.59984375 8.76765625 10.60984375 8.43765625 9.58984375 8.09765625 C5.16164797 10.8037759 1.26393441 13.42356559 -2.41015625 17.09765625 C-4.39015625 17.09765625 -6.37015625 17.09765625 -8.41015625 17.09765625 C-9.41015625 16.09765625 -9.41015625 16.09765625 -9.53515625 8.59765625 C-9.39367992 0.10907664 -9.39367992 0.10907664 0 0 Z " fill="#293C7A" transform="translate(270.41015625,228.90234375)"/>
<path d="M0 0 C1.32 0.66 2.64 1.32 4 2 C4 2.66 4 3.32 4 4 C4.66 4 5.32 4 6 4 C8.37039755 6.63377505 10.70053432 9.30407472 13 12 C14.32 13.32 15.64 14.64 17 16 C17 16.66 17 17.32 17 18 C17.99 18.33 18.98 18.66 20 19 C22.69839065 22.30770466 25.36267456 25.64340399 28 29 C29.65 30.65 31.3 32.3 33 34 C35.34692206 36.65471512 37.68279245 39.31930891 40 42 C28.23579753 53.76420247 15.26284572 56.76796623 -1 58 C-10 57 -10 57 -12 55 C-9.7725 55.04125 -7.545 55.0825 -5.25 55.125 C10.63206995 54.88436258 22.83347398 51.94648563 36 43 C32.96965889 36.93931778 28.11848171 32.60397651 23.5078125 27.71875 C13.29850746 16.89552239 13.29850746 16.89552239 12 13 C10.68 12.34 9.36 11.68 8 11 C6.02 8.69 4.04 6.38 2 4 C-2.12403473 5.64856825 -2.12403473 5.64856825 -4 9 C-4.66 9 -5.32 9 -6 9 C-6.66 10.32 -7.32 11.64 -8 13 C-11.26152212 16.80510915 -14.52545535 20.60850287 -17.8359375 24.37109375 C-20.29275926 27.18885599 -22.66462979 30.08078724 -25 33 C-26.32 34.32 -27.64 35.64 -29 37 C-29.66 37 -30.32 37 -31 37 C-33 40.76429774 -33 40.76429774 -34 44 C-32.370625 44.94875 -30.74125 45.8975 -29.0625 46.875 C-24 50 -24 50 -23 52 C-28 51 -28 51 -33 48 C-33 47.34 -33 46.68 -33 46 C-34.32 45.67 -35.64 45.34 -37 45 C-41.25 41.5625 -41.25 41.5625 -45 38 C-45 37.34 -45 36.68 -45 36 C-41 38 -41 38 -38 40 C-37.67 37.36 -37.34 34.72 -37 32 C-36.34 32.33 -35.68 32.66 -35 33 C-35 34.65 -35 36.3 -35 38 C-28.09709941 32.08322807 -22.65332429 26.06665536 -17 19 C-16.34 19 -15.68 19 -15 19 C-14.67 17.68 -14.34 16.36 -14 15 C-13.34 15 -12.68 15 -12 15 C-12 14.34 -12 13.68 -12 13 C-11.34 13 -10.68 13 -10 13 C-9.34 11.68 -8.68 10.36 -8 9 C-6.68 7.35 -5.36 5.7 -4 4 C-3.34 4 -2.68 4 -2 4 C-1.34 2.68 -0.68 1.36 0 0 Z " fill="#222C56" transform="translate(280,318)"/>
<path d="M0 0 C3 1 3 1 5.27734375 5.1796875 C6.15519531 7.05914062 7.03304688 8.93859375 7.9375 10.875 C8.90171875 12.93621094 9.8659375 14.99742187 10.859375 17.12109375 C15.99705731 28.37415164 21.0267198 39.67341944 26 51 C26.33 44.73 26.66 38.46 27 32 C27.66 32 28.32 32 29 32 C29.06058594 33.85367188 29.12117188 35.70734375 29.18359375 37.6171875 C29.26738281 40.01226562 29.35117187 42.40734375 29.4375 44.875 C29.51871094 47.26492187 29.59992188 49.65484375 29.68359375 52.1171875 C29.58090279 57.49391469 29.58090279 57.49391469 31 60 C33.64 60.33 36.28 60.66 39 61 C39.125 77.75 39.125 77.75 38 80 C35 79 35 79 31 72 C28.99042813 66.67026592 26.99126847 61.33659951 25 56 C23.01942416 51.65775437 21.01705999 47.32541868 19 43 C15.66298604 35.56107458 12.34262465 28.11486299 9.0234375 20.66796875 C6.78481931 15.7308612 4.42431196 10.84862392 2 6 C2 5.34 2 4.68 2 4 C1.34 4 0.68 4 0 4 C-0.66 5.65 -1.32 7.3 -2 9 C-6.71480716 20.00121672 -11.73620566 30.81296755 -16.9609375 41.578125 C-19.09092785 45.83670188 -19.09092785 45.83670188 -20 50 C-20.66 50 -21.32 50 -22 50 C-20.08749646 38.52497876 -14.20770484 28.30691583 -9 18 C-7.4221875 14.5659375 -7.4221875 14.5659375 -5.8125 11.0625 C-3 5 -3 5 0 0 Z M30 62 C31.98615909 68.23529553 31.98615909 68.23529553 35 75 C35.33 75 35.66 75 36 75 C36.33 71.04 36.66 67.08 37 63 C34.69 62.67 32.38 62.34 30 62 Z " fill="#232E58" transform="translate(280,132)"/>
<path d="M0 0 C1.32 0.33 2.64 0.66 4 1 C4 25.42 4 49.84 4 75 C3.34 75 2.68 75 2 75 C1.505 75.99 1.505 75.99 1 77 C-1.08663696 69.0328407 -2.66212683 61.12280139 -4 53 C-4.33 52.67 -4.66 52.34 -5 52 C-5.71151203 48.32088987 -6.36852088 44.63118851 -7 40.9375 C-7.350625 38.90464844 -7.70125 36.87179687 -8.0625 34.77734375 C-8.80534101 30.19958602 -9.4247719 25.60182477 -10 21 C-9.34 21.33 -8.68 21.66 -8 22 C-5.38371349 31.21387857 -3.70565923 40.58179467 -2 50 C-1.01 55.445 -1.01 55.445 0 61 C0.33 41.86 0.66 22.72 1 3 C-2.63 4.98 -6.26 6.96 -10 9 C-9.67 11.97 -9.34 14.94 -9 18 C-9.66 18.66 -10.32 19.32 -11 20 C-13 11 -13 11 -13 8 C-9.72043363 5.91300322 -6.38262088 3.91546002 -3 2 C-2.01 1.34 -1.02 0.68 0 0 Z " fill="#212A54" transform="translate(315,268)"/>
<path d="M0 0 C1.32 0.66 2.64 1.32 4 2 C1.94239498 10.23042009 -0.11597096 18.46057039 -2.1875 26.6875 C-4.15572272 34.62826063 -5.1150284 41.17059844 -5.0625 49.3125 C-5.041875 52.509375 -5.02125 55.70625 -5 59 C-6.485 59.495 -6.485 59.495 -8 60 C-8.33 60.66 -8.66 61.32 -9 62 C-10 58 -10 58 -9 54 C-10.32 52.68 -11.64 51.36 -13 50 C-13.25 42.75 -13.25 42.75 -13 36 C-12.34 36 -11.68 36 -11 36 C-10.67 33.36 -10.34 30.72 -10 28 C-8.93717465 23.7132711 -7.80666854 19.44300253 -6.625 15.1875 C-6.01914063 12.97417969 -5.41328125 10.76085937 -4.7890625 8.48046875 C-3 3 -3 3 0 0 Z " fill="#283D7D" transform="translate(225,270)"/>
<path d="M0 0 C0.33 1.32 0.66 2.64 1 4 C4.465 5.485 4.465 5.485 8 7 C9.32 8.65 10.64 10.3 12 12 C12.99 12 13.98 12 15 12 C15.33 12.66 15.66 13.32 16 14 C15.34 14 14.68 14 14 14 C18.73002265 20.38643816 18.73002265 20.38643816 26 24 C26.33 24.66 26.66 25.32 27 26 C32.627322 29.372678 32.627322 29.372678 38 29 C38.495 31.475 38.495 31.475 39 34 C42.3 34.66 45.6 35.32 49 36 C48.67 37.32 48.34 38.64 48 40 C47.01 39.67 46.02 39.34 45 39 C45 38.34 45 37.68 45 37 C44.01 37.495 44.01 37.495 43 38 C32.73567286 38 26.64351851 34.18611111 18 29 C1 12 1 12 -1 2 C-0.67 1.34 -0.34 0.68 0 0 Z " fill="#293C7B" transform="translate(221,340)"/>
<path d="M0 0 C1 3 1 3 -3 12 C-4.155 14.825625 -5.31 17.65125 -6.5 20.5625 C-8.80758976 26.12543959 -11.30662786 31.61325572 -14 37 C-15.68305932 41.66077964 -17.34865113 46.327891 -19 51 C-20.6480318 55.00771368 -22.31002875 59.00979011 -24 63 C-24.33 63.99 -24.66 64.98 -25 66 C-27 67 -27 67 -34 67 C-32.68 68.98 -31.36 70.96 -30 73 C-30.84088954 79.7271163 -32.11966823 84.89605393 -34.25 91.25 C-37.67447227 101.74230059 -40.43347528 112.26726025 -43 123 C-43.66 123 -44.32 123 -45 123 C-43.26867483 107.41807351 -37.94486655 92.83459965 -33 78 C-33.5287229 71.98904007 -33.5287229 71.98904007 -37 68 C-37 67.01 -37 66.02 -37 65 C-33.7 65 -30.4 65 -27 65 C-26.34 62.36 -25.68 59.72 -25 57 C-19.16967568 41.78619074 -12.66970368 26.86056785 -6 12 C-5.21625 10.02 -4.4325 8.04 -3.625 6 C-2 2 -2 2 0 0 Z " fill="#212C59" transform="translate(257,183)"/>
<path d="M0 0 C0.99 0 1.98 0 3 0 C5.39105957 3.62928685 7.72220187 7.29857804 10 11 C10.99 11.99 11.98 12.98 13 14 C14.32 16.31 15.64 18.62 17 21 C17.66 21.99 18.32 22.98 19 24 C19 29 19 29 17 33 C19.31 33 21.62 33 24 33 C22.25 48.625 22.25 48.625 20 52 C20.875 38.375 20.875 38.375 22 35 C20.02 35 18.04 35 16 35 C15 30 15 30 16 24 C12.81827684 19.45642762 12.81827684 19.45642762 9 15 C7.02 11.535 7.02 11.535 5 8 C4.01 6.68 3.02 5.36 2 4 C-5.18605912 20.76747128 -8.97883681 38.8232953 -10 57 C-12 55 -12 55 -12.3125 49.25 C-11.57272974 32.08732993 -5.38804224 16.16412672 0 0 Z " fill="#202C57" transform="translate(231,267)"/>
<path d="M0 0 C3.55079429 0.00668699 7.10158146 0.01866468 10.65234375 0.03515625 C13.36420898 0.04192383 13.36420898 0.04192383 16.13085938 0.04882812 C20.61720141 0.06066544 25.10352657 0.07860158 29.58984375 0.09765625 C29.58984375 5.70765625 29.58984375 11.31765625 29.58984375 17.09765625 C21.6759489 17.09765625 18.75418091 13.81156114 12.58984375 9.09765625 C11.59984375 8.76765625 10.60984375 8.43765625 9.58984375 8.09765625 C5.16164797 10.8037759 1.26393441 13.42356559 -2.41015625 17.09765625 C-4.39015625 17.09765625 -6.37015625 17.09765625 -8.41015625 17.09765625 C-9.41015625 16.09765625 -9.41015625 16.09765625 -9.53515625 8.59765625 C-9.39367992 0.10907664 -9.39367992 0.10907664 0 0 Z M-7.41015625 3.09765625 C-7.45135215 6.76409149 -7.45229906 10.43123178 -7.41015625 14.09765625 C-6.09015625 14.42765625 -4.77015625 14.75765625 -3.41015625 15.09765625 C-1.45078125 13.61265625 0.50859375 12.12765625 2.52734375 10.59765625 C4.52796875 9.11265625 6.52859375 7.62765625 8.58984375 6.09765625 C13.58984375 7.09765625 13.58984375 7.09765625 18.58984375 9.09765625 C18.58984375 9.75765625 18.58984375 10.41765625 18.58984375 11.09765625 C20.89984375 12.41765625 23.20984375 13.73765625 25.58984375 15.09765625 C26.57984375 14.76765625 27.56984375 14.43765625 28.58984375 14.09765625 C28.58984375 10.13765625 28.58984375 6.17765625 28.58984375 2.09765625 C22.77736826 2.07084319 16.96485854 2.0513471 11.15234375 2.03515625 C7.91550781 2.02355469 4.67867188 2.01195312 1.34375 2 C-5.73196073 1.18674547 -5.73196073 1.18674547 -7.41015625 3.09765625 Z " fill="#202B50" transform="translate(270.41015625,228.90234375)"/>
<path d="M0 0 C4.9375 3.5625 4.9375 3.5625 9 7 C7.94465512 13.33206926 5.91100107 17.31031608 3 23 C1.30665101 26.98877763 -0.36652941 30.98632941 -2 35 C-3.32 35 -4.64 35 -6 35 C-10 27 -10 27 -12 20 C-11.34 20 -10.68 20 -10 20 C-8.02 23.96 -6.04 27.92 -4 32 C-3.2575 30.164375 -2.515 28.32875 -1.75 26.4375 C1 20 1 20 5 13 C5 11.02 5 9.04 5 7 C-1.41074435 1.17504209 -1.41074435 1.17504209 -8 3 C-9.65 4.32 -11.3 5.64 -13 7 C-12.92928721 13.18553384 -12.92928721 13.18553384 -12 19 C-15 15 -15 15 -17 11 C-16 6 -16 6 -11.875 2.125 C-7 -1 -7 -1 0 0 Z " fill="#232D55" transform="translate(285,243)"/>
<path d="M0 0 C0.66 0 1.32 0 2 0 C2.928125 2.495625 3.85625 4.99125 4.8125 7.5625 C6.77167533 12.74855235 8.81619771 17.90446132 11 23 C12.010625 25.43375 13.02125 27.8675 14.0625 30.375 C16.07073625 36.80052769 16.07073625 36.80052769 19 38 C19.37125 36.659375 19.7425 35.31875 20.125 33.9375 C22.38185001 26.79080832 25.17800178 19.94211562 28 13 C29.67397998 8.66948657 31.3431341 4.33709015 33 0 C33.66 0.33 34.32 0.66 35 1 C30.5 13 30.5 13 26 25 C25.154375 27.26875 24.30875 29.5375 23.4375 31.875 C21 38 21 38 19 40 C17.68 39.67 16.36 39.34 15 39 C10.15152684 28.84129434 5.93992668 18.54509789 2 8 C1.34 6.35 0.68 4.7 0 3 C0 2.01 0 1.02 0 0 Z " fill="#252F57" transform="translate(263,251)"/>
<path d="M0 0 C0.66 0 1.32 0 2 0 C2.33 1.32 2.66 2.64 3 4 C3.66 4 4.32 4 5 4 C5.66 6.64 6.32 9.28 7 12 C7.66 12 8.32 12 9 12 C9.33 15.3 9.66 18.6 10 22 C8.35 21.67 6.7 21.34 5 21 C5.66 22.98 6.32 24.96 7 27 C6.67 28.32 6.34 29.64 6 31 C5.34 31 4.68 31 4 31 C3.67 29.35 3.34 27.7 3 26 C2.67 26.99 2.34 27.98 2 29 C1 24 1 24 1.0625 16.9375 C1.51039706 10.28889766 1.51039706 10.28889766 -1 6 C-0.67 4.02 -0.34 2.04 0 0 Z " fill="#293C7E" transform="translate(340,288)"/>
<path d="M0 0 C1.32 0.33 2.64 0.66 4 1 C4 25.42 4 49.84 4 75 C3.34 75 2.68 75 2 75 C1.505 75.99 1.505 75.99 1 77 C0.34 74.36 -0.32 71.72 -1 69 C-0.01 69.66 0.98 70.32 2 71 C2.33 48.56 2.66 26.12 3 3 C-1.38671802 4.88002201 -5.73125051 6.86562525 -10 9 C-9.67 11.97 -9.34 14.94 -9 18 C-9.66 18.66 -10.32 19.32 -11 20 C-13 11 -13 11 -13 8 C-9.72043363 5.91300322 -6.38262088 3.91546002 -3 2 C-2.01 1.34 -1.02 0.68 0 0 Z " fill="#23326B" transform="translate(315,268)"/>
<path d="M0 0 C0.99 0.99 1.98 1.98 3 3 C3.66 2.34 4.32 1.68 5 1 C5 1.99 5 2.98 5 4 C5.66 4.33 6.32 4.66 7 5 C6.01 5 5.02 5 4 5 C4 20.88578432 12.116323 31.23371785 22 43 C23.65 44.32 25.3 45.64 27 47 C27 47.66 27 48.32 27 49 C25.35 48.34 23.7 47.68 22 47 C22 46.34 22 45.68 22 45 C20.68 44.34 19.36 43.68 18 43 C18 42.34 18 41.68 18 41 C17.34 41 16.68 41 16 41 C6.19481279 27.55288611 0 16.75406411 0 0 Z " fill="#232D58" transform="translate(212,320)"/>
<path d="M0 0 C0.66 0.99 1.32 1.98 2 3 C-6.5 14.75 -6.5 14.75 -11 17 C-11 17.66 -11 18.32 -11 19 C-23.41282129 28.05101552 -34.40400916 35 -50 35 C-50 34.34 -50 33.68 -50 33 C-47.525 32.7525 -47.525 32.7525 -45 32.5 C-26.88389672 28.61797787 -11.71829094 17.87436294 -1 3 C-0.67 2.01 -0.34 1.02 0 0 Z " fill="#212C52" transform="translate(338,348)"/>
<path d="M0 0 C3.55079429 0.00668699 7.10158146 0.01866468 10.65234375 0.03515625 C13.36420898 0.04192383 13.36420898 0.04192383 16.13085938 0.04882812 C20.61720141 0.06066544 25.10352657 0.07860158 29.58984375 0.09765625 C25.78590854 3.90159146 21.94252247 3.12079278 16.63671875 3.1953125 C12.52976562 3.17791016 12.52976562 3.17791016 8.33984375 3.16015625 C4.21742188 3.14662109 4.21742188 3.14662109 0.01171875 3.1328125 C-2.1075 3.12121094 -4.22671875 3.10960937 -6.41015625 3.09765625 C-7.07015625 7.38765625 -7.73015625 11.67765625 -8.41015625 16.09765625 C-8.74015625 16.09765625 -9.07015625 16.09765625 -9.41015625 16.09765625 C-9.45217157 11.09783278 -9.45147715 6.09748551 -9.41015625 1.09765625 C-8.41015625 0.09765625 -8.41015625 0.09765625 0 0 Z " fill="#242F57" transform="translate(270.41015625,228.90234375)"/>
<path d="M0 0 C1.98877933 5.966338 -2.68639021 12.47566643 -5 18 C2.26 18 9.52 18 17 18 C17 18.66 17 19.32 17 20 C9.08 20 1.16 20 -7 20 C-8.70308786 14.89073642 -5.95836065 10.81650862 -4 6 C-2.68 4.02 -1.36 2.04 0 0 Z " fill="#242E59" transform="translate(246,230)"/>
<path d="M0 0 C1.485 0.99 1.485 0.99 3 2 C3 2.99 3 3.98 3 5 C4.65 3.68 6.3 2.36 8 1 C8.66 1.33 9.32 1.66 10 2 C11.64370639 7.81619186 13 12.9402263 13 19 C11 17 11 17 10 9 C9.34 9 8.68 9 8 9 C7.67 7.68 7.34 6.36 7 5 C6.34 5 5.68 5 5 5 C5.52057921 9.68521286 6.07549967 14.37749836 7 19 C6.34 19.66 5.68 20.32 5 21 C4.34 21 3.68 21 3 21 C3 18.03 3 15.06 3 12 C2.01 9.03 1.02 6.06 0 3 C0 2.01 0 1.02 0 0 Z " fill="#273469" transform="translate(335,283)"/>
<path d="M0 0 C6 2 6 2 11 5 C10.34 9.62 9.68 14.24 9 19 C7.68 19 6.36 19 5 19 C2.67624549 13.34553068 0.68334645 7.89171258 -1 2 C3 6 3 6 6 13 C8.2236068 9.2981424 8.2236068 9.2981424 8 6 C5.36 4.35 2.72 2.7 0 1 C0 0.67 0 0.34 0 0 Z " fill="#222E58" transform="translate(250,271)"/>
<path d="M0 0 C1 3 1 3 -2 15 C-13.88 14.67 -25.76 14.34 -38 14 C-38 13.67 -38 13.34 -38 13 C-26.78 12.67 -15.56 12.34 -4 12 C-3.34 9.69 -2.68 7.38 -2 5 C-1.34 3.35 -0.68 1.7 0 0 Z " fill="#222C59" transform="translate(302,210)"/>
<path d="M0 0 C0.66 0.33 1.32 0.66 2 1 C-7.375 26 -7.375 26 -12 38 C-14.19195666 31.42413003 -8.87736036 22.82932484 -6.5 16.375 C-5.9121875 14.77398437 -5.324375 13.17296875 -4.71875 11.5234375 C-3.24445801 7.64336904 -1.63504831 3.81511273 0 0 Z " fill="#1D2852" transform="translate(296,251)"/>
<path d="M0 0 C0.66 0 1.32 0 2 0 C2.391875 1.464375 2.78375 2.92875 3.1875 4.4375 C5.29845451 10.91594658 8.23238568 16.34857853 12 22 C11.67 22.99 11.34 23.98 11 25 C6 19 6 19 5 14 C4.34 14 3.68 14 3 14 C0 4.5 0 4.5 0 0 Z " fill="#26305B" transform="translate(222,328)"/>
<path d="M0 0 C0 0.66 0 1.32 0 2 C-3.63 3.98 -7.26 5.96 -11 8 C-10.67 10.97 -10.34 13.94 -10 17 C-10.66 17.66 -11.32 18.32 -12 19 C-14 10 -14 10 -14 7 C-3.08 0 -3.08 0 0 0 Z " fill="#232C55" transform="translate(316,269)"/>
<path d="M0 0 C0.33 0 0.66 0 1 0 C2.125 14.75 2.125 14.75 1 17 C0.01 16.67 -0.98 16.34 -2 16 C-5 10 -5 10 -4 6 C-3.34 7.32 -2.68 8.64 -2 10 C-1.67 7.03 -1.34 4.06 -1 1 C-0.67 0.67 -0.34 0.34 0 0 Z " fill="#1F2C50" transform="translate(317,195)"/>
<path d="M0 0 C0.66 0 1.32 0 2 0 C2 9.56298365 -1.29605666 16.76809916 -6 25 C-7 21 -7 21 -4 15 C-2.61501663 10.01405988 -1.27574623 5.01500243 0 0 Z " fill="#222C53" transform="translate(347,324)"/>
<path d="M0 0 C5.84935155 2.33974062 11.36608651 5.18304325 17 8 C20.465 9.485 20.465 9.485 24 11 C21 12 21 12 14 10 C8.19592773 7.09796387 4.65198267 4.65198267 0 0 Z " fill="#1E2752" transform="translate(239,369)"/>
<path d="M0 0 C0.66 0 1.32 0 2 0 C2 5.28 2 10.56 2 16 C-4 16 -4 16 -10 11 C-9.67 10.34 -9.34 9.68 -9 9 C-5.535 10.98 -5.535 10.98 -2 13 C-1.34 13 -0.68 13 0 13 C0 8.71 0 4.42 0 0 Z " fill="#1C2449" transform="translate(298,230)"/>
<path d="M0 0 C0.33 0 0.66 0 1 0 C0 7 0 7 -3 16 C-6.96 16 -10.92 16 -15 16 C-15 15.67 -15 15.34 -15 15 C-11.7 15 -8.4 15 -5 15 C-4.34 12.36 -3.68 9.72 -3 7 C-2.01 4.69 -1.02 2.38 0 0 Z " fill="#28315A" transform="translate(235,233)"/>
<path d="M0 0 C1.65 1.65 3.3 3.3 5 5 C4.67 5.99 4.34 6.98 4 8 C3.34 7.01 2.68 6.02 2 5 C1.34 5 0.68 5 0 5 C-0.33 5.66 -0.66 6.32 -1 7 C-1.66 7 -2.32 7 -3 7 C-2.67 8.65 -2.34 10.3 -2 12 C-2.99 12 -3.98 12 -5 12 C-4 5 -4 5 0 0 Z " fill="#1A2547" transform="translate(309,152)"/>
<path d="M0 0 C4 2 4 2 10 9 C11.32 9.99 12.64 10.98 14 12 C14 12.66 14 13.32 14 14 C11.525 13.01 11.525 13.01 9 12 C9 11.34 9 10.68 9 10 C7.68 9.34 6.36 8.68 5 8 C5 7.34 5 6.68 5 6 C4.34 6 3.68 6 3 6 C0 2 0 2 0 0 Z " fill="#212C53" transform="translate(225,355)"/>
<path d="M0 0 C0.99 0.99 1.98 1.98 3 3 C3.66 2.34 4.32 1.68 5 1 C5 1.99 5 2.98 5 4 C5.66 4.33 6.32 4.66 7 5 C6.01 5 5.02 5 4 5 C3.67 6.98 3.34 8.96 3 11 C2.01 11.495 2.01 11.495 1 12 C0 10 0 10 0 0 Z " fill="#253366" transform="translate(212,320)"/>
<path d="M0 0 C7 6 7 6 13 12 C13 12.66 13 13.32 13 14 C8 12 8 12 6 8 C3.69 6.35 1.38 4.7 -1 3 C-0.67 2.01 -0.34 1.02 0 0 Z " fill="#26325B" transform="translate(281,198)"/>
<path d="M0 0 C0 0.66 0 1.32 0 2 C1.32 2.66 2.64 3.32 4 4 C4.66 4.66 5.32 5.32 6 6 C2.7 5.67 -0.6 5.34 -4 5 C-4 4.34 -4 3.68 -4 3 C-4.66 2.34 -5.32 1.68 -6 1 C-2 0 -2 0 0 0 Z " fill="#263365" transform="translate(266,377)"/>
<path d="M0 0 C0.66 0 1.32 0 2 0 C2 7 2 7 0 15 C-0.66 14.34 -1.32 13.68 -2 13 C-1.45619259 8.64954075 -0.85983501 4.29917504 0 0 Z " fill="#25305C" transform="translate(246,335)"/>
<path d="M0 0 C4 2 4 2 6 7 C3.525 6.01 3.525 6.01 1 5 C-0.98 5.99 -0.98 5.99 -3 7 C-1 2 -1 2 0 0 Z " fill="#212C4D" transform="translate(318,152)"/>
<path d="M0 0 C0.33 0 0.66 0 1 0 C1 7 1 7 -1 14 C-1.66 13.67 -2.32 13.34 -3 13 C-1.125 1.125 -1.125 1.125 0 0 Z " fill="#25315C" transform="translate(250,320)"/>
<path d="M0 0 C0.66 0.33 1.32 0.66 2 1 C2 2.65 2 4.3 2 6 C2.66 6.33 3.32 6.66 4 7 C1.525 8.485 1.525 8.485 -1 10 C-2 8 -2 8 0 0 Z " fill="#26315D" transform="translate(243,350)"/>
<path d="M0 0 C0.99 0 1.98 0 3 0 C3.33 3.3 3.66 6.6 4 10 C3.34 10 2.68 10 2 10 C0 4 0 4 0 0 Z " fill="#2A3469" transform="translate(346,300)"/>
<path d="M0 0 C5 1 5 1 10 5 C6 5 6 5 0 1 C0 0.67 0 0.34 0 0 Z " fill="#232E5E" transform="translate(279,234)"/>
<path d="M0 0 C1 2 1 2 1 7 C0.01 7.33 -0.98 7.66 -2 8 C-2.66 8.99 -3.32 9.98 -4 11 C-4.33 9.68 -4.66 8.36 -5 7 C-4.34 7 -3.68 7 -3 7 C-2.34 5.02 -1.68 3.04 -1 1 C-0.67 0.67 -0.34 0.34 0 0 Z " fill="#2A3971" transform="translate(247,224)"/>
<path d="M0 0 C0.33 1.32 0.66 2.64 1 4 C0.34 4 -0.32 4 -1 4 C-1.66 5.32 -2.32 6.64 -3 8 C-3 6.68 -3 5.36 -3 4 C-3.99 3.67 -4.98 3.34 -6 3 C-2 0 -2 0 0 0 Z " fill="#283869" transform="translate(303,207)"/>
<path d="M0 0 C3 3 3 3 5 8 C4.01 8 3.02 8 2 8 C0 4 0 4 0 0 Z " fill="#2E3660" transform="translate(333,240)"/>
<path d="" fill="#FFFFFF" transform="translate(0,0)"/>
<path d="" fill="#00FFFF" transform="translate(0,0)"/>
<path d="" fill="#FFFFFF" transform="translate(0,0)"/>
<path d="" fill="#FFFFFF" transform="translate(0,0)"/>
<path d="" fill="#FFFFFF" transform="translate(0,0)"/>
<path d="" fill="#FFFFFF" transform="translate(0,0)"/>
<path d="" fill="#FFFFFF" transform="translate(0,0)"/>
<path d="" fill="#FFFFFF" transform="translate(0,0)"/>
<path d="" fill="#FFFFFF" transform="translate(0,0)"/>
<path d="" fill="#FFFFFF" transform="translate(0,0)"/>
<path d="" fill="#FFFFFF" transform="translate(0,0)"/>
<path d="" fill="#FFFFFF" transform="translate(0,0)"/>
</svg>
